PathFileType	4	(X/Y/Z)	Kaydara	
DataRate	CameraRate	NumFrames	NumMarkers	Units	OrigDataRate	OrigDataStartFrame	OrigNumFrames	
240.00	240.00	4	72	mm	240.00	222	355	
Frame#	Time	Hips			RightUpLeg			RightLeg			RightFoot			RightFoot_End			LeftUpLeg			LeftLeg			LeftFoot			LeftFoot_End			Spine			Spine1			Spine2			Spine3			Neck			Head			Head_End			RightShoulder			RightArm			RightForeArm			RightHand			RightHandThumb1			RightHandThumb2			RightHandThumb3			RightHandThumb3_End			RightInHandIndex			RightHandIndex1			RightHandIndex2			RightHandIndex3			RightHandIndex3_End			RightInHandMiddle			RightHandMiddle1			RightHandMiddle2			RightHandMiddle3			RightHandMiddle3_End			RightInHandRing			RightHandRing1			RightHandRing2			RightHandRing3			RightHandRing3_End			RightInHandPinky			RightHandPinky1			RightHandPinky2			RightHandPinky3			RightHandPinky3_End			LeftShoulder			LeftArm			LeftForeArm			LeftHand			LeftHandThumb1			LeftHandThumb2			LeftHandThumb3			LeftHandThumb3_End			LeftInHandIndex			LeftHandIndex1			LeftHandIndex2			LeftHandIndex3			LeftHandIndex3_End			LeftInHandMiddle			LeftHandMiddle1			LeftHandMiddle2			LeftHandMiddle3			LeftHandMiddle3_End			LeftInHandRing			LeftHandRing1			LeftHandRing2			LeftHandRing3			LeftHandRing3_End			LeftInHandPinky			LeftHandPinky1			LeftHandPinky2			LeftHandPinky3			LeftHandPinky3_End			
		X1	Y1	Z1	X2	Y2	Z2	X3	Y3	Z3	X4	Y4	Z4	X5	Y5	Z5	X6	Y6	Z6	X7	Y7	Z7	X8	Y8	Z8	X9	Y9	Z9	X10	Y10	Z10	X11	Y11	Z11	X12	Y12	Z12	X13	Y13	Z13	X14	Y14	Z14	X15	Y15	Z15	X16	Y16	Z16	X17	Y17	Z17	X18	Y18	Z18	X19	Y19	Z19	X20	Y20	Z20	X21	Y21	Z21	X22	Y22	Z22	X23	Y23	Z23	X24	Y24	Z24	X25	Y25	Z25	X26	Y26	Z26	X27	Y27	Z27	X28	Y28	Z28	X29	Y29	Z29	X30	Y30	Z30	X31	Y31	Z31	X32	Y32	Z32	X33	Y33	Z33	X34	Y34	Z34	X35	Y35	Z35	X36	Y36	Z36	X37	Y37	Z37	X38	Y38	Z38	X39	Y39	Z39	X40	Y40	Z40	X41	Y41	Z41	X42	Y42	Z42	X43	Y43	Z43	X44	Y44	Z44	X45	Y45	Z45	X46	Y46	Z46	X47	Y47	Z47	X48	Y48	Z48	X49	Y49	Z49	X50	Y50	Z50	X51	Y51	Z51	X52	Y52	Z52	X53	Y53	Z53	X54	Y54	Z54	X55	Y55	Z55	X56	Y56	Z56	X57	Y57	Z57	X58	Y58	Z58	X59	Y59	Z59	X60	Y60	Z60	X61	Y61	Z61	X62	Y62	Z62	X63	Y63	Z63	X64	Y64	Z64	X65	Y65	Z65	X66	Y66	Z66	X67	Y67	Z67	X68	Y68	Z68	X69	Y69	Z69	X70	Y70	Z70	X71	Y71	Z71	X72	Y72	Z72	

222	0.921	1921.0129	906.651	56.2195	1953.6103659286136	872.8245691587728	-11.251725891848594	1880.1278996476742	466.148392527313	-74.18688808618478	1940.492512691642	100.55819626028351	-178.99775390459936	1866.9339538957227	21.548196276238606	-21.293847857499514	1895.5105911908088	911.6340148321276	135.52324324956876	1840.2486900002389	510.09847969210404	240.28361478362206	1767.8900026163467	79.59471567391482	292.83661108128075	1644.4832982737155	-5.347421142637217	174.72775323148906	1888.0042528356207	1036.030925266504	5.273137255731659	1839.2423972840702	1107.169694947894	-38.89419468148844	1782.935386193698	1176.0928130081588	-85.88697059524675	1721.1476057104032	1233.2815486064742	-132.4165437019189	1654.4955907263668	1294.1740004457865	-181.46229286358192	1592.9288849027805	1349.6946789728443	-225.01509022036615	1469.9244431837146	1441.5539194382886	-265.99960295827606	1685.096243979428	1265.599646777265	-185.80299053615218	1699.9531203944193	1232.5430282466682	-264.26649024119575	1704.4065561579473	1036.496984099222	-195.81873127986802	1699.5020535350704	927.1665883018587	-220.16557628691567	1707.6834083126196	936.5729056180758	-233.90910426200722	1703.3103891179421	934.1667032362666	-241.01818545536923	1699.5883583162704	929.710144277626	-244.53942136126886	1695.906591971601	923.6159399685893	-246.25198286119635	1707.2018155954006	927.851151167652	-230.46330276749288	1711.2904314435507	916.9198292564449	-239.08962349879275	1707.7609814991247	907.2618877769024	-242.86124131023521	1702.3015526871718	903.2453596148247	-244.47632005259902	1695.580333256827	901.2617159275613	-245.32088148995396	1704.916100544382	920.5706057673716	-226.16889455225333	1707.6695011591962	905.9710510038084	-232.26052640362724	1703.4953378901093	894.5045573731278	-235.77870037092978	1696.753820619057	889.2135670556536	-237.44055553094105	1689.3242759863592	886.8266846064148	-238.22529982684242	1703.2580306645618	915.7063173461264	-222.92978867911273	1704.465111623511	898.4010231607461	-225.6213088982324	1700.4919336701553	887.4815274698907	-228.06738780373075	1693.8113113092509	881.8865904533965	-229.3409170324485	1686.7413602218949	879.4094721198147	-229.92264847930704	1700.7470855103797	910.412948943816	-218.82822867199985	1700.5126328255974	891.2753480072436	-218.82149730442785	1696.8027554846415	881.1633713418483	-219.80052050924954	1691.674315637859	876.4206348681042	-220.25552570132686	1685.2644050872216	873.8454520350131	-220.4980977819108	1668.2923725776448	1283.1514550127843	-143.52376797917304	1655.5735207215737	1276.50118149623	-53.920748648228205	1720.6712957295204	1077.0425215407756	-115.11847083116109	1737.5634698353065	924.9545392085737	-155.0680848133578	1728.317735877358	935.8425278714201	-166.3450305434883	1725.641563454089	927.2958905825277	-179.9536219731589	1724.4893889918594	918.2991868354405	-188.87695261315986	1724.1375369898778	908.1942463205178	-195.84226710706218	1729.4331634688454	927.0241533369833	-165.1629503365359	1722.1884028352442	914.1396046397027	-179.54152810974077	1720.2813763601334	899.3105096162892	-190.7861156102784	1720.7989522465746	890.353299834457	-197.79199838072316	1722.3762032145894	883.1161730078022	-203.600972443203	1731.7694820623733	918.9124996761882	-163.21539342414326	1725.9659867015635	901.9593718439986	-176.1860359900734	1724.2207317319705	884.7420470691984	-188.15404444614836	1725.006261112234	873.4384266416829	-196.46143657481124	1726.810360201554	865.2780566466404	-202.7470374381403	1733.5763464455886	913.5474716876112	-161.45919062114191	1729.8600189349988	893.8052899473339	-171.5199514378518	1728.6914131404556	877.7661660932939	-181.62227964581209	1729.6363546860334	866.3146555669765	-189.46067655830163	1731.4214036269866	858.3820339102557	-195.28792286538857	1736.0942017627845	907.4453043759073	-159.1235474860358	1734.1394774974065	885.6961316599749	-166.87120653662626	1733.7701741694882	871.3277075033914	-174.40366179312863	1734.7334366975595	862.2372873674644	-179.85153094382815	1736.47239680264	854.7857496836922	-184.8584268318932
223	0.925	1921.0129	906.651	56.2195	1953.105985094619	872.6079429284819	-11.454112661394685	1879.6665118648136	465.90318159766156	-74.24427989690109	1940.6151649762614	100.46171967376199	-179.29989691209116	1867.0928149569932	21.40283319494972	-21.603337283361263	1896.0070876199982	911.850211144731	135.72865116216846	1840.820429752914	510.32218471142437	240.55351102785662	1768.1594253575902	79.83415180755908	292.8820799153516	1644.8290422014813	-5.181889186160209	174.74758637878804	1888.0522021143547	1036.0400107973776	5.268454586862576	1839.4353024391376	1107.3641364286939	-38.77388021358724	1783.2505348274242	1176.4754926422672	-85.64733301450445	1721.5075487172167	1233.7668809314441	-132.0985689267296	1654.902918462613	1294.7696385896681	-181.05870272549646	1593.3830025368354	1350.3941247126563	-224.53254436052444	1470.3476101248564	1442.2509555814981	-265.41057189180924	1685.4512861756664	1266.2041635445462	-185.34792845957315	1699.5221629297425	1232.6183744624511	-263.2359042011675	1703.9338834906243	1037.3678295219854	-193.98180818222323	1698.4692594903506	928.9035364995226	-217.23745802478825	1706.8142345046112	938.6618937804147	-230.7723023328468	1702.6282037712713	936.4919328019453	-237.80403621814327	1699.0284844449452	932.2006625541949	-241.29272441824872	1695.4419230478716	926.2449091223602	-242.9963959149756	1706.3170767518181	929.993775119118	-227.37416796050516	1710.6123781309684	919.604819105318	-235.87513941833092	1707.2387491230593	910.2250721733643	-239.61090342026662	1701.8731731458688	906.2843116299673	-241.22425113483513	1695.2275994487313	904.2978290282833	-242.0812518260735	1704.003243828044	922.6917228057131	-223.1445481132625	1706.9430210549276	908.609575447438	-229.14895446110054	1702.9345230718955	897.4419250772369	-232.6370270742691	1696.3041425327544	892.2400833825994	-234.30112202850702	1688.956350909304	889.8489873594972	-235.1015770357302	1702.3199009588848	917.7995214896088	-219.95401331695805	1703.6716864288273	900.9369765347334	-222.6083265286636	1699.8381471803045	890.272302377829	-225.0375299864238	1693.262201998455	884.7603495112123	-226.31819476041514	1686.267921576615	882.2778518954511	-226.9170546038133	1699.7748802785532	912.4494403970838	-215.9152668517983	1699.651765024748	893.6868977072103	-215.91173571923292	1696.0456575438652	883.7682169496256	-216.8920129009433	1690.9896778476132	879.0808068305977	-217.3593627399495	1684.644558395765	876.4978601223145	-217.62122440962497	1668.7202533005034	1283.6606586674375	-143.2321189560094	1656.6007855266892	1277.6338531206916	-53.62502835092814	1721.357120652484	1077.9812920588975	-114.02627717584183	1737.0696648743478	926.0274138717356	-152.77182834916985	1727.72440674647	937.2901182205959	-163.98864660919307	1724.8790920396925	928.909457526446	-177.3603833111439	1723.6039184625047	919.9984995836361	-186.0999530365198	1723.1450745306201	909.9395110874693	-192.89598011428316	1728.8154869880284	928.4166877674891	-162.74386954797058	1721.3471656172596	915.8340771729647	-176.8205013445669	1719.2661427511089	901.1214787360551	-187.8001603863785	1719.6870215360912	892.186180361826	-194.6500101784737	1721.1919781426611	884.9331197394613	-200.33568371302212	1731.1445502014224	920.2089170278682	-160.7530441680115	1725.1190811265042	903.498328447698	-173.40579031893648	1723.1837032635199	886.3943425679715	-185.07991177136478	1723.8524489292568	875.1105500363319	-193.19675182456817	1725.5773918376026	866.9295277816075	-199.34631914765689	1732.9521026007162	914.7690923660853	-158.9743502780595	1729.0377527230103	895.1817293997384	-168.73178314554832	1727.7035233568986	879.2269235452904	-178.57354972281894	1728.5358665734404	867.786847488595	-186.22580113034192	1730.2465071405227	859.8311639534991	-191.92403760389934	1735.4763687116406	908.5655451451861	-156.6185954679193	1733.3442699647871	886.8987053778549	-164.0767967427756	1732.8433400903516	872.5745333477092	-171.39504575298545	1733.7249565062777	863.4812032355829	-176.70445489601687	1735.3982815278814	856.0027643110014	-181.59551901612895
224	0.929	1921.0129	906.651	56.2195	1952.5054907992057	872.3554954084207	-11.694283697133084	1879.1149166691696	465.61890244459005	-74.3300389629358	1940.6967262470325	100.35929476327247	-179.7113407003947	1867.2203559404652	21.311292763821463	-21.987790649014663	1896.5965665641997	912.09968844125	135.96780603273487	1841.4798126035914	510.5842844517436	240.87553585686973	1768.5229966024967	80.10937486560609	292.96550983789604	1645.2692120110391	-4.9768703672843335	174.8022916349521	1888.116569433926	1036.061658024213	5.283397154547496	1839.6257173534896	1107.5581521968597	-38.63353205080634	1783.5330736160406	1176.8371333656767	-85.38218486964307	1721.7850012211425	1234.1981759117698	-131.7329827753572	1655.170951960773	1295.2706882993446	-180.5841539289187	1593.644299734935	1350.959963296625	-223.95572389492122	1470.573628881023	1442.8110370888505	-264.7218085942448	1685.6147327782344	1266.6318311844466	-184.87352502366457	1699.0108777090963	1232.6289068845515	-262.236481612043	1703.393139202528	1038.1713385201924	-192.1994364034279	1697.6090193847804	930.8502742724351	-214.47861511355475	1706.0246584935041	940.8394956059086	-227.92588865384727	1701.942288302757	938.7836679227576	-234.86397825791312	1698.4058660015714	934.5692574993666	-238.28844468520617	1694.8644699576703	928.6753300662367	-239.93943475359842	1705.4968295685399	932.1983953456275	-224.5226707026423	1709.8431719518135	922.1278058706223	-232.8884059174088	1706.533287619885	912.8881950364281	-236.53337000140482	1701.2261199234683	908.9673018953397	-238.10176761049672	1694.6415535031326	906.9518988039823	-238.9293255087664	1703.1583831348498	924.8742532788868	-220.3006179179893	1706.1346155287943	911.0907103067184	-226.17721761305015	1702.192302133887	900.0719283668527	-229.56765460514342	1695.6307664610983	894.8921134072095	-231.17820920611877	1688.3489405166943	892.4684227988157	-231.94678009559001	1701.4560116699472	919.9591955539217	-217.11883074369337	1702.8229747456853	903.3469722860151	-219.6660334786063	1699.043612953256	892.8074339422271	-222.01181219761014	1692.5322116897335	887.3142723067776	-223.24172669349292	1685.5990734326883	884.7999683253036	-223.81103048226512	1698.8902183769524	914.5666721150792	-213.09450880184772	1698.7671096916472	896.0105862817152	-213.00140755409558	1695.198850008595	886.1838090005632	-213.91796137102662	1690.1872750486941	881.5060878708559	-214.34978065258576	1683.8947793501598	878.892655556952	-214.5863208450493	1669.1042715935353	1284.1890417422414	-142.8344656804854	1657.5073030859432	1278.6798881482382	-53.32237746516481	1721.9096834322452	1078.8303781809568	-112.91602496895213	1736.425129420169	927.0077379631686	-150.4672322044263	1726.7249866339841	938.0173625462671	-161.3817402381389	1723.890046391834	929.3997414612525	-174.400752996915	1722.6996281220438	920.303786783445	-182.88901759919997	1722.3777735391868	910.0734898803307	-189.470699172608	1728.045373850241	929.0356615178546	-160.08652755374317	1720.7423638076666	915.8849694962711	-173.6133905055901	1718.8622553388855	900.848895450147	-184.2232353745405	1719.379193192543	891.8122797316826	-190.89745881506408	1720.9441954841327	884.5426672064904	-196.47438292804978	1730.5836520541038	920.7967536380492	-158.10003277782258	1724.8325600580858	903.5152136086402	-170.21889144022748	1723.143592119809	886.0560685309599	-181.491844955993	1723.9412708999791	874.6490007763698	-189.3979327390144	1725.7382619655418	866.449358144556	-195.42906229717312	1732.534463091422	915.3484534084567	-156.33815258456022	1728.989393464539	895.239195603347	-165.63090430422193	1727.8972867271698	878.973523799631	-175.12627569435963	1728.8685214344923	867.4138362760561	-182.5769759171432	1730.6537812546835	859.4403160858712	-188.16467365696255	1735.22166842787	909.1592621843376	-154.0198811640958	1733.527666105358	887.0191430509042	-161.0738800170391	1733.261673663511	872.4462736571302	-168.12187609495115	1734.2644599888004	863.2658129658935	-173.28771959133528	1736.0153176560777	855.7716417563166	-178.08284637925027
225	0.933	1921.0129	906.651	56.2195	1951.9327833065327	872.119189388681	-11.90237023063081	1878.6057972200822	465.3459127504823	-74.37585379445996	1940.8631870115425	100.30147992464589	-180.16835935811537	1867.4242465212271	21.286815652718918	-22.41064870741616	1897.1553522868262	912.3322642562489	136.17514120499297	1842.1148397401396	510.83774587899376	241.20346384740688	1768.8691780215368	80.3723895508294	293.0310314090898	1645.695422273695	-4.7901630718957815	174.83959407242833	1888.1933110112432	1036.0862426370215	5.296052529161795	1839.702517328995	1107.6353457243415	-38.54120300019606	1783.6001623024306	1176.973136602073	-85.19474434447454	1721.825430343746	1234.3896945593226	-131.435536092181	1655.1747600804756	1295.5107472807756	-180.16829801827015	1593.6137661058037	1351.241516594996	-223.4286016702096	1470.499750213357	1443.0815118205383	-264.0718073040691	1685.4909430634502	1266.7622558765252	-184.4801405523653	1698.3172874113484	1232.4355798979814	-261.3771962736243	1702.6785608190826	1038.764999857005	-190.5707158006931	1696.5132233333252	932.5382308670415	-211.91369516580158	1704.9545176740837	942.7076865200319	-225.32081141281316	1700.937662379512	940.7129365245072	-232.15330222569534	1697.4381203905991	936.5371436669544	-235.49689890045403	1693.9199898071881	930.67205227069	-237.07420093276554	1704.3909262682696	934.0831745293866	-221.89096608935017	1708.7186548573313	924.2377853346339	-230.11296372342312	1705.431921720298	915.0795707219385	-233.64005530254997	1700.167541881206	911.1536577748478	-235.1425029905017	1693.6375376885217	909.0965769849083	-235.92041963501256	1702.0310515150263	926.736958850423	-217.65312581284695	1704.9775256402086	913.1611504400495	-223.3809961245134	1701.0577600376207	902.2274536481642	-226.64117342764467	1694.5465374383293	897.0397845121187	-228.17137161333238	1687.3237761105206	894.5696182273207	-228.88524253427383	1700.313586974743	921.8013418446558	-214.46395577107157	1701.6395340129225	905.3597366883613	-216.87176431759985	1697.8770928785773	894.8902017681011	-219.10256551156456	1691.4127681190125	889.3872584016251	-220.2542054663155	1684.534480522766	886.8282079768057	-220.77171646157228	1697.7343089683004	916.3724262169172	-210.43447136446645	1697.5638243652231	897.9530938766262	-210.2106340777074	1694.0050360248592	888.175139117667	-211.0334774538514	1689.0258289294447	883.4867822891766	-211.40740812621058	1682.7807924012554	880.8317034414929	-211.59760878679177	1669.2675570080148	1284.5088525602407	-142.4799773703091	1658.2119647023367	1279.5370774023097	-53.042226829172655	1722.2509273066073	1079.4807648407063	-111.80268453110695	1735.5631098153488	927.7913280006685	-148.20883196498698	1725.2370747202701	937.7115596329119	-158.46392517964716	1722.6596669794276	928.3481606891208	-170.95803160541965	1721.8330623238062	918.7348349857006	-179.0955364822254	1721.9723193199588	908.0749419278277	-185.39745855322943	1727.1255878202996	928.5826323787007	-157.14069265365865	1720.5733218330784	913.7850897948277	-169.76070152305505	1719.4065438627722	897.8936347502432	-179.84910324786517	1720.2632144208712	888.6109374329162	-186.31765314495593	1722.03943169498	881.3303560025275	-191.8042776446658	1730.1485504930417	920.420280333762	-155.23119167544525	1725.3918196586558	901.5737761622856	-166.50714758106906	1724.542990752071	883.1970404727573	-177.22434213194214	1725.7801799518963	871.5006695722249	-184.88864236366175	1727.8226867676033	863.2927145351657	-190.82405822546852	1732.4220480279043	915.0648239424233	-153.54565388364907	1730.0465356049433	893.6240862096138	-162.1457637045769	1729.7482612400963	876.5772958669212	-171.17160193356722	1731.1761295366691	864.7484607168906	-178.39698071471204	1733.2077233314028	856.7718236173887	-183.89842079694264	1735.4640120482616	909.0560808050517	-151.35107012917695	1735.0597122821312	885.7944890464407	-157.84172633296413	1735.5203324607862	870.6310711371638	-164.53997322269586	1736.9001835735694	861.2711926278417	-169.55415069341726	1738.8945734068925	853.7839841249868	-174.28017194584672
